<?xml version="1.0" standalone="no"?>
<!DOCTYPE svg PUBLIC "-//W3C//DTD SVG 20010904//EN"
 "http://www.w3.org/TR/2001/REC-SVG-20010904/DTD/svg10.dtd">
<svg version="1.0" xmlns="http://www.w3.org/2000/svg"
 width="452.000000pt" height="552.000000pt" viewBox="0 0 452.000000 552.000000"
 preserveAspectRatio="xMidYMid meet">

<g transform="translate(0.000000,552.000000) scale(0.100000,-0.100000)"
fill="#000000" stroke="none">
<path d="M393 5425 c-39 -27 -63 -79 -63 -134 0 -68 16 -65 22 4 5 61 28 93
88 126 l35 18 -30 1 c-17 0 -40 -7 -52 -15z"/>
<path d="M435 5369 c-20 -18 -33 -34 -30 -38 3 -3 10 1 14 8 10 15 40 3 79
-32 42 -38 21 -73 -29 -47 -35 19 -21 -8 18 -35 43 -29 79 -32 111 -9 38 27
29 68 -29 130 -61 64 -83 67 -134 23z"/>
<path d="M838 5239 c-16 -11 -28 -25 -28 -30 0 -5 20 -27 45 -50 34 -31 43
-45 35 -54 -15 -18 4 -29 35 -21 54 14 49 74 -11 145 -30 36 -39 37 -76 10z"/>
<path d="M745 5220 c-22 -25 -41 -26 -54 -3 -17 31 -23 6 -7 -26 9 -17 15 -34
14 -38 -2 -4 7 -18 20 -30 27 -28 28 -45 2 -68 -28 -25 -25 -36 6 -25 36 14
40 13 76 -18 18 -15 47 -34 63 -41 17 -7 80 -46 141 -86 86 -57 138 -102 223
-192 61 -65 111 -121 111 -125 0 -23 -32 3 -138 108 -164 165 -382 325 -239
176 37 -38 67 -79 67 -89 0 -11 9 -28 20 -38 14 -13 17 -25 13 -46 -5 -28 -4
-29 20 -20 30 12 37 6 37 -30 0 -22 6 -30 26 -35 22 -6 25 -11 20 -34 -4 -24
-1 -28 24 -33 20 -4 29 -13 32 -29 2 -18 10 -24 36 -26 28 -3 32 -7 32 -33 0
-24 6 -32 30 -40 25 -9 30 -16 30 -45 0 -27 4 -34 19 -34 28 0 53 -38 41 -61
-8 -14 -5 -19 20 -24 23 -5 30 -12 30 -31 0 -18 5 -24 21 -24 18 0 21 -4 16
-30 -5 -21 -2 -32 9 -38 13 -7 14 -13 5 -30 -15 -28 -16 -28 29 -24 31 3 40 1
40 -11 0 -9 -5 -19 -11 -23 -7 -4 -2 -11 13 -18 19 -10 23 -20 26 -69 3 -53 5
-57 27 -57 23 0 24 -4 27 -62 l3 -63 18 32 c9 18 17 43 17 57 0 44 19 38 47
-15 16 -28 53 -81 83 -118 30 -37 66 -84 80 -104 14 -20 28 -37 33 -37 4 0 4
19 1 43 l-7 42 26 -23 c13 -13 27 -20 30 -15 11 18 -31 88 -64 107 -140 78
-219 181 -303 396 -45 113 -92 193 -162 277 -59 69 -80 103 -65 103 6 0 45
-41 88 -91 43 -50 79 -86 81 -80 5 14 -70 154 -113 213 -22 30 -54 57 -84 73
-28 13 -69 46 -93 72 -99 110 -183 183 -294 258 -135 91 -179 132 -206 192
-17 39 -18 45 -3 73 13 24 13 30 2 30 -8 0 -22 -9 -32 -20z"/>
<path d="M316 5158 c-22 -30 -21 -39 16 -153 l32 -100 7 52 c4 29 16 64 28 78
l20 27 -29 59 c-32 63 -50 72 -74 37z"/>
<path d="M1049 5098 c57 -67 69 -87 64 -106 -5 -23 -4 -24 26 -17 27 6 31 4
31 -14 0 -12 5 -21 10 -21 6 0 10 -7 10 -16 0 -12 6 -15 24 -10 29 7 43 -9 26
-29 -11 -13 -7 -15 23 -15 39 0 56 -15 38 -33 -25 -25 -12 -37 31 -31 44 8 45
5 22 -50 -7 -17 -4 -19 35 -13 46 6 64 -10 41 -38 -19 -22 -5 -29 29 -15 47
19 68 -5 34 -42 -22 -24 -13 -30 26 -17 38 13 50 6 33 -21 -11 -17 -10 -20 8
-20 15 0 20 -7 20 -26 0 -23 3 -25 24 -20 31 8 40 -5 21 -30 -24 -31 -19 -45
11 -33 35 13 39 7 19 -24 -15 -23 -15 -25 7 -30 21 -6 21 -7 3 -27 -18 -20
-18 -20 18 -20 44 0 46 -8 12 -48 -30 -36 -23 -46 17 -26 37 19 56 7 39 -24
-9 -17 -8 -22 9 -27 12 -4 30 -16 40 -28 18 -19 19 -23 5 -43 -21 -32 -19 -35
11 -23 38 14 42 3 16 -43 -12 -23 -21 -43 -19 -45 2 -2 15 6 30 17 33 26 40
25 35 -5 -6 -30 10 -33 42 -7 22 18 22 19 5 45 -19 30 -10 35 21 12 31 -23 33
-18 13 36 -16 41 -19 74 -18 170 1 125 -6 149 -43 149 -16 0 -17 -3 -8 -20 8
-15 6 -37 -10 -90 -12 -39 -25 -68 -31 -65 -5 4 -22 35 -38 70 -34 74 -104
185 -151 238 -18 21 -85 77 -149 125 -64 47 -207 164 -318 259 -111 95 -205
173 -208 173 -4 0 25 -37 64 -82z"/>
<path d="M474 5068 c-12 -5 -27 -27 -34 -47 -14 -43 -1 -78 44 -120 37 -35 40
-22 6 29 -17 25 -30 52 -30 60 0 18 62 70 83 70 13 0 67 -76 196 -275 51 -78
195 -242 350 -401 l158 -161 143 -286 c79 -158 145 -286 146 -284 4 3 -172
434 -219 539 -21 47 -52 83 -164 190 -344 329 -381 372 -486 548 -31 52 -62
102 -69 111 -30 37 -81 48 -124 27z"/>
<path d="M530 5020 c-13 -8 -13 -14 2 -42 9 -18 19 -43 23 -56 3 -12 15 -27
26 -32 10 -6 19 -16 19 -22 0 -5 14 -26 30 -45 26 -29 29 -37 19 -50 -13 -15
-11 -18 34 -44 19 -11 37 -5 37 13 0 12 -157 275 -168 282 -5 3 -14 1 -22 -4z"/>
<path d="M760 4862 c0 -12 53 -83 79 -106 27 -25 28 -3 1 31 -11 14 -20 32
-20 39 0 7 -7 20 -16 28 -17 17 -44 22 -44 8z"/>
<path d="M323 4798 c-38 -48 -58 -193 -48 -346 4 -57 8 -102 10 -100 1 2 8 86
15 187 12 189 19 226 47 247 25 17 38 8 53 -36 11 -34 10 -46 -14 -120 -14
-45 -26 -94 -26 -110 0 -16 -5 -41 -11 -57 -6 -15 -11 -48 -10 -71 1 -24 -4
-54 -12 -65 -8 -12 -22 -53 -31 -92 -10 -38 -31 -117 -47 -175 -15 -58 -38
-161 -49 -230 -20 -126 -28 -332 -11 -315 5 6 14 62 20 125 36 343 108 631
178 706 l23 25 35 -21 c37 -23 41 -21 25 10 -5 10 -17 51 -25 91 -17 80 -10
122 25 154 29 26 25 41 -33 125 -39 56 -58 76 -78 78 -14 2 -30 -3 -36 -10z"/>
<path d="M725 4670 c-8 -13 3 -30 20 -30 14 0 125 -115 125 -131 0 -5 16 -27
36 -49 22 -24 34 -46 30 -55 -3 -10 1 -15 12 -15 19 0 54 -34 90 -87 36 -51
36 -50 -76 -144 -13 -10 -26 -19 -28 -19 -11 0 -2 49 11 60 23 19 19 43 -5 35
-23 -7 -27 13 -9 47 20 37 -3 33 -36 -6 -38 -45 -53 -35 -30 20 24 58 20 69
-16 44 -38 -28 -47 -19 -26 25 22 46 21 49 -5 31 -35 -25 -40 -19 -18 24 25
50 25 55 -2 36 -27 -19 -42 -21 -35 -3 22 52 22 50 -8 43 -26 -7 -27 -5 -21
19 5 20 3 25 -12 25 -10 0 -44 25 -75 56 -64 64 -97 65 -42 2 19 -23 44 -67
56 -97 57 -156 214 -404 323 -514 90 -90 100 -106 209 -323 48 -94 95 -182
106 -195 26 -31 41 -17 48 45 5 38 3 46 -11 46 -11 0 -16 9 -16 30 0 23 -5 30
-19 30 -17 0 -19 5 -14 35 5 29 3 35 -12 35 -14 0 -16 6 -11 35 6 30 4 35 -12
35 -26 0 -33 10 -21 31 8 16 6 19 -16 19 -22 0 -25 3 -19 24 4 19 1 25 -18 30
-30 8 -51 27 -126 115 -92 107 -97 116 -83 149 12 27 117 109 128 98 3 -3 -2
-17 -11 -30 -23 -35 -21 -37 25 -30 45 8 63 -6 53 -40 -4 -12 -2 -16 5 -11 14
8 41 -12 41 -32 0 -8 -17 -21 -37 -29 -32 -14 -35 -17 -19 -26 12 -7 31 -7 59
0 48 13 61 7 54 -20 -4 -14 0 -22 14 -25 10 -3 19 -14 19 -24 0 -11 3 -19 8
-19 7 0 48 -120 44 -132 -1 -4 7 -12 18 -18 11 -6 17 -16 14 -25 -4 -10 0 -15
14 -15 14 0 24 -10 32 -35 12 -37 50 -68 50 -41 0 31 -240 492 -277 532 -21
22 -127 138 -236 257 -188 205 -224 236 -242 207z"/>
<path d="M2065 4656 c-67 -29 -133 -107 -115 -135 5 -10 16 0 36 34 36 62 114
101 152 76 11 -6 8 -16 -12 -46 -30 -43 -33 -80 -11 -132 20 -47 32 -35 16 15
-16 47 -11 97 9 97 10 0 17 -14 20 -44 3 -26 11 -46 19 -49 12 -4 13 9 7 78
-4 45 -11 91 -17 101 -12 23 -59 25 -104 5z"/>
<path d="M492 4577 c-29 -31 -28 -60 4 -94 20 -22 24 -24 19 -8 -16 50 -17 76
-1 100 21 31 7 33 -22 2z"/>
<path d="M557 4577 c-15 -11 -15 -16 -1 -57 18 -51 31 -70 49 -70 33 0 23 91
-13 123 -15 14 -21 15 -35 4z"/>
<path d="M1825 4480 c-3 -5 -1 -10 4 -10 6 0 11 5 11 10 0 6 -2 10 -4 10 -3 0
-8 -4 -11 -10z"/>
<path d="M616 4407 c-16 -12 -16 -14 3 -39 23 -28 27 -53 11 -63 -19 -11 -10
-25 15 -25 22 0 24 -3 15 -19 -14 -27 -13 -31 8 -31 24 0 48 -56 32 -75 -10
-13 -8 -15 14 -15 30 0 32 -7 9 -32 -15 -17 -14 -18 15 -18 37 0 38 -2 15 -36
-16 -25 -16 -25 10 -19 43 11 52 -4 21 -36 -31 -33 -27 -36 18 -13 26 14 32
14 45 2 14 -15 8 -48 -8 -48 -5 0 -9 -5 -9 -10 0 -6 15 -8 40 -4 36 6 40 4 40
-14 0 -12 -4 -24 -10 -27 -22 -14 -9 -26 20 -20 38 8 51 -16 25 -45 -18 -20
-17 -20 16 -20 19 0 40 -5 47 -12 19 -19 14 -70 -10 -95 -26 -28 -20 -37 16
-23 35 13 49 4 42 -26 -5 -17 -3 -22 7 -18 8 3 20 -2 27 -11 11 -13 11 -21 2
-36 -11 -16 -9 -19 9 -19 19 0 20 -4 15 -34 -6 -30 -4 -34 13 -29 30 8 32 -11
6 -47 -32 -44 -31 -51 5 -37 40 15 46 4 21 -39 -25 -42 -22 -51 9 -34 31 16
35 6 13 -27 -36 -52 -37 -54 -7 -43 46 18 55 7 53 -62 0 -35 3 -109 6 -166 7
-98 8 -103 34 -117 15 -7 33 -21 41 -30 12 -14 14 -14 31 1 20 18 22 17 23
-36 1 -20 6 -25 26 -25 15 0 26 -7 28 -18 2 -10 13 -17 27 -17 21 0 24 -5 27
-47 l3 -48 30 50 c24 41 31 64 34 123 3 77 -8 107 -31 84 -22 -22 -28 -13 -28
38 0 57 -12 64 -30 20 -15 -37 -26 -38 -34 -5 -7 29 -18 32 -36 10 -21 -25
-30 -17 -30 26 0 36 -2 40 -15 29 -9 -7 -18 -10 -22 -6 -3 3 -7 70 -7 149 -1
135 -2 144 -29 195 -15 30 -41 71 -56 92 -15 21 -45 78 -66 127 -94 218 -97
222 -216 349 -102 109 -122 137 -188 260 -72 135 -97 174 -111 174 -3 0 -14
-6 -24 -13z"/>
<path d="M2184 4335 c4 -44 8 -89 9 -100 2 -16 -3 -19 -23 -17 -35 5 -99 44
-139 86 -19 20 -39 36 -43 36 -13 0 -9 -83 7 -137 17 -57 60 -126 94 -149 33
-24 33 -14 1 36 -30 47 -85 180 -73 180 12 0 143 -85 143 -92 0 -5 -9 -8 -21
-8 -28 0 -15 -17 20 -25 16 -3 39 -17 52 -31 l23 -25 -22 -6 c-31 -8 -27 -19
8 -26 23 -5 30 -12 30 -30 0 -13 15 -36 34 -55 59 -55 117 -172 86 -172 -35 0
-116 58 -177 125 -67 76 -137 129 -114 88 17 -31 223 -228 291 -278 36 -26
106 -71 155 -101 102 -60 131 -84 176 -151 19 -27 35 -41 37 -34 6 19 -126
206 -205 289 -74 78 -239 384 -293 544 -49 145 -65 159 -56 53z"/>
<path d="M480 4301 c0 -5 5 -13 10 -16 6 -3 10 -2 10 4 0 5 -4 13 -10 16 -5 3
-10 2 -10 -4z"/>
<path d="M533 4170 c3 -30 0 -100 -6 -156 -13 -104 -7 -145 23 -164 11 -7 11
-11 1 -23 -8 -10 -9 -17 -1 -22 5 -3 10 -17 10 -31 0 -27 12 -29 58 -13 45 15
58 8 34 -20 -16 -20 -17 -32 -10 -70 4 -25 15 -51 23 -57 8 -6 12 -19 8 -32
-4 -16 -1 -22 12 -22 13 0 16 -6 11 -25 -4 -16 -1 -34 9 -48 8 -12 15 -31 15
-44 0 -12 5 -45 11 -73 8 -38 15 -50 25 -46 19 7 21 -1 29 -101 5 -70 4 -83
-9 -83 -18 0 -63 55 -154 190 -91 135 -112 198 -112 329 0 65 -7 131 -21 190
-17 75 -19 97 -9 124 6 17 15 72 20 120 12 126 2 145 -42 78 -16 -24 -27 -59
-31 -96 -3 -31 -13 -65 -21 -74 -11 -13 -13 -20 -5 -28 15 -15 3 -33 -22 -33
-26 0 -24 -10 9 -36 24 -20 27 -29 28 -87 0 -35 3 -68 6 -73 3 -5 5 -31 4 -57
-1 -27 1 -50 5 -52 4 -3 6 -40 5 -84 -1 -76 -3 -80 -35 -110 -41 -38 -36 -47
14 -27 66 28 71 24 54 -44 -3 -10 3 -14 18 -12 27 4 37 -12 23 -39 -14 -25 -6
-36 14 -20 21 18 37 4 30 -25 -5 -19 -2 -24 13 -24 12 0 29 -18 48 -50 16 -27
35 -52 42 -54 7 -3 13 -19 13 -36 0 -24 4 -30 21 -30 18 0 20 -4 13 -45 -3
-25 -4 -45 -2 -45 3 0 22 25 42 55 20 30 41 55 46 55 21 0 8 -66 -25 -126 -34
-62 -34 -63 -9 -52 22 10 29 7 70 -33 25 -24 48 -57 51 -72 3 -16 12 -31 20
-34 11 -4 13 -15 9 -39 -6 -29 -4 -32 14 -27 14 4 20 0 20 -10 0 -9 9 -21 21
-28 17 -9 20 -17 15 -42 -3 -18 -16 -45 -27 -60 -28 -39 -17 -45 21 -13 47 39
57 25 32 -43 -4 -10 1 -12 16 -7 32 10 43 0 32 -29 -9 -23 -7 -25 16 -25 23 0
25 -3 19 -29 -5 -25 -4 -29 12 -25 13 4 23 -4 35 -28 9 -18 32 -66 52 -107 51
-102 54 -121 22 -175 -31 -54 -32 -56 -6 -56 31 0 34 -23 10 -69 -21 -43 -18
-50 14 -26 44 33 60 7 31 -49 -19 -35 -16 -40 19 -26 64 24 70 9 26 -56 -27
-39 -29 -44 -12 -44 10 0 29 11 42 25 13 14 27 25 31 25 9 0 109 -179 109
-196 0 -18 -40 -44 -70 -44 -14 0 -31 -4 -39 -9 -11 -7 -9 -11 8 -20 30 -17
26 -28 -14 -35 -63 -12 -29 -29 43 -23 73 7 157 43 237 101 46 33 50 35 53 16
5 -27 11 -26 72 20 59 44 80 50 80 21 0 -36 -156 -150 -300 -220 l-75 -36 73
-3 c82 -3 81 -2 52 -88 -13 -36 -18 -70 -14 -87 4 -21 -1 -38 -20 -67 -58 -87
-17 -56 174 135 209 209 260 277 260 347 0 29 -5 37 -32 50 -34 17 -204 156
-337 275 -40 37 -121 130 -180 207 -58 77 -139 183 -179 235 -78 104 -202 335
-202 380 0 32 -53 269 -81 366 -32 106 -173 494 -201 550 -14 28 -46 88 -71
135 -25 47 -71 150 -102 230 -66 168 -80 189 -72 110z"/>
<path d="M1654 4135 c12 -51 75 -177 112 -222 32 -39 74 -58 74 -33 0 23 -50
107 -80 135 -18 17 -51 57 -73 90 -32 48 -38 54 -33 30z"/>
<path d="M2036 3964 c-3 -9 -1 -24 6 -33 7 -9 33 -41 58 -72 25 -30 61 -75 80
-99 19 -24 56 -68 83 -97 26 -29 47 -60 47 -69 0 -20 50 -114 60 -114 23 0 27
138 6 179 -8 15 -36 47 -63 71 -26 23 -84 77 -128 119 -144 136 -142 134 -149
115z"/>
<path d="M2094 3758 c9 -66 42 -127 110 -203 84 -95 194 -291 196 -347 0 -10
5 -18 10 -18 28 0 -12 196 -52 254 -12 17 -42 51 -68 76 -29 29 -55 67 -70
105 -30 75 -100 185 -119 185 -11 0 -12 -11 -7 -52z"/>
<path d="M940 3714 c0 -14 3 -14 15 -4 8 7 15 14 15 16 0 2 -7 4 -15 4 -8 0
-15 -7 -15 -16z"/>
<path d="M2040 3602 c0 -21 9 -85 19 -143 18 -97 33 -146 77 -244 l19 -40 6
90 c6 88 5 92 -31 175 -20 47 -45 109 -54 137 -22 66 -36 76 -36 25z"/>
<path d="M2597 3523 c-4 -6 14 -110 38 -232 56 -277 53 -294 -31 -148 -91 159
-155 257 -164 252 -5 -3 0 -31 11 -63 17 -46 19 -71 14 -132 l-6 -75 56 -112
c30 -61 55 -124 55 -138 0 -34 -38 -122 -55 -129 -19 -7 -28 8 -64 99 -18 43
-54 118 -80 165 -27 47 -52 105 -56 129 -14 82 -27 18 -23 -112 3 -120 4 -123
42 -192 21 -38 49 -84 62 -101 72 -98 128 -252 128 -356 0 -74 1 -77 26 -82
15 -2 85 -32 157 -64 71 -33 151 -67 175 -76 108 -36 201 -29 255 19 28 25 28
25 8 41 -11 8 -50 33 -87 55 -63 37 -107 81 -121 121 -3 9 -22 87 -42 173 -20
86 -46 181 -57 213 -16 44 -22 95 -28 232 -9 198 -22 253 -94 374 -50 83 -110
154 -119 139z"/>
<path d="M1907 3453 c-3 -5 -10 -34 -16 -65 -11 -61 -7 -85 52 -275 28 -88
140 -378 157 -403 9 -13 12 -13 24 3 14 18 15 18 24 0 5 -10 17 -44 27 -76 15
-48 16 -64 6 -96 -6 -21 -11 -77 -11 -124 0 -100 13 -116 55 -61 24 31 29 34
66 28 56 -9 56 14 4 116 -18 36 -38 90 -44 120 -6 30 -13 65 -17 78 -9 31 13
29 48 -5 22 -21 28 -23 28 -10 0 23 -378 777 -389 777 -6 0 -12 -3 -14 -7z"/>
<path d="M230 3355 c0 -8 35 -72 77 -142 91 -153 161 -297 199 -413 16 -47 53
-132 83 -190 44 -86 58 -127 78 -224 25 -128 72 -251 134 -358 21 -36 39 -69
39 -72 0 -3 -25 -33 -56 -68 -62 -69 -78 -101 -99 -198 -42 -188 -53 -332 -39
-503 12 -132 24 -84 24 92 0 92 5 192 10 222 6 29 34 105 64 169 29 63 63 145
75 182 12 37 31 79 43 93 19 24 19 55 0 55 -8 0 -25 30 -70 127 -8 17 -11 37
-7 43 4 7 -2 18 -13 26 -25 18 -37 61 -21 81 10 12 10 16 -2 24 -8 5 -17 9
-21 9 -14 0 -8 23 9 35 15 11 15 13 -5 24 -25 13 -30 41 -7 41 21 0 19 7 -15
43 -30 32 -30 32 -10 49 20 16 20 17 -7 20 -19 2 -29 10 -31 23 -2 11 -9 25
-15 30 -24 20 -74 132 -80 179 -4 27 -12 55 -18 62 -8 10 -3 16 19 28 15 8 35
22 42 31 13 16 11 16 -24 1 -21 -9 -44 -16 -51 -16 -8 0 -23 29 -35 64 -12 36
-34 83 -50 105 -16 22 -32 52 -36 67 -4 15 -13 39 -20 53 -8 14 -14 31 -14 36
0 6 -13 17 -28 26 -15 8 -47 48 -70 87 -44 74 -52 83 -52 57z"/>
<path d="M1579 3295 c-4 -5 -12 -41 -18 -80 -14 -86 -6 -118 47 -189 60 -80
90 -136 121 -229 56 -165 101 -232 240 -359 l40 -37 6 32 c25 153 32 264 19
314 -3 11 -14 23 -25 26 -10 3 -19 14 -19 24 0 18 -126 230 -158 267 -10 10
-43 38 -75 63 l-59 44 7 -40 c8 -50 -7 -55 -30 -11 -9 17 -27 35 -41 40 -14 6
-22 15 -19 20 4 6 1 18 -6 26 -7 9 -15 34 -19 57 -3 23 -8 38 -11 32z"/>
<path d="M1562 2589 c-68 -33 -78 -49 -33 -49 42 0 47 -17 15 -51 -32 -33 -30
-35 21 -13 46 19 52 14 29 -22 l-18 -27 26 6 c14 4 33 10 42 13 12 4 16 0 16
-16 0 -17 4 -21 18 -15 51 21 71 13 37 -15 -33 -28 -17 -35 45 -19 9 3 14 -3
14 -13 -1 -14 4 -16 22 -12 27 7 29 -1 9 -36 -20 -35 -19 -38 18 -42 22 -2 32
-8 32 -20 0 -9 3 -20 7 -23 4 -4 4 -13 1 -21 -6 -16 19 -19 47 -4 31 16 62 76
58 112 l-3 33 -24 -27 c-36 -41 -55 -37 -34 7 20 41 11 56 -17 30 -26 -23 -37
-13 -22 20 7 14 12 37 12 51 0 23 -3 25 -30 19 -28 -6 -30 -5 -30 24 l0 31
-36 -15 c-47 -19 -45 -20 -37 16 l6 31 -32 -16 c-35 -19 -39 -10 -15 35 22 44
9 48 -29 11 -43 -42 -63 -43 -42 -2 31 60 16 64 -73 19z"/>
<path d="M2400 2351 c0 -19 -52 -71 -71 -71 -19 0 -159 -151 -159 -172 0 -17
5 -19 38 -14 28 4 56 -2 117 -27 78 -32 80 -33 78 -65 -1 -26 2 -31 12 -22 20
16 65 1 83 -29 17 -26 54 -35 78 -19 18 12 23 -2 12 -33 -15 -44 -2 -47 23 -5
25 42 38 47 31 10 -4 -23 -2 -25 18 -19 21 7 22 5 16 -21 l-7 -27 36 27 c20
16 38 26 40 24 2 -2 -10 -37 -26 -77 -16 -41 -28 -76 -25 -78 2 -2 23 27 46
64 49 78 156 186 242 244 62 42 71 57 24 39 -51 -19 -156 -12 -211 15 -27 13
-51 23 -53 21 -2 -2 4 -18 12 -35 30 -57 13 -117 -29 -107 -13 3 -27 2 -30 -4
-12 -20 -25 -9 -25 22 l0 31 -23 -21 c-30 -28 -45 -28 -81 3 -16 14 -37 25
-48 25 -10 0 -18 5 -18 10 0 6 -8 10 -19 10 -39 0 -51 41 -51 169 0 66 -3 126
-6 135 -8 22 -24 20 -24 -3z"/>
<path d="M3340 2291 c-52 -16 -89 -42 -133 -93 -61 -73 -117 -159 -117 -181 0
-17 2 -17 22 -3 48 34 50 13 8 -76 -37 -78 -39 -100 -7 -70 13 12 26 22 30 22
14 0 6 -38 -13 -63 -25 -32 -25 -41 -1 -27 46 24 47 20 24 -100 -5 -32 -4 -34
10 -21 27 22 50 6 42 -29 -5 -22 -3 -30 7 -30 8 0 23 -6 33 -14 18 -13 18 -15
2 -58 -9 -24 -17 -53 -17 -63 0 -16 7 -12 33 19 l33 39 36 -32 c20 -17 38 -31
41 -31 3 0 18 28 35 63 17 37 59 95 103 144 46 50 92 114 118 164 56 108 92
152 166 201 54 36 65 40 108 35 31 -3 81 -21 140 -51 51 -26 141 -64 201 -84
124 -42 145 -61 153 -136 6 -53 20 -67 40 -40 43 59 -52 158 -196 205 -72 24
-104 43 -168 100 -22 21 -61 43 -85 49 -23 7 -77 23 -118 35 -41 13 -110 26
-154 29 -109 8 -151 23 -191 68 -34 37 -37 38 -97 37 -35 0 -74 -4 -88 -8z"/>
<path d="M1497 2148 c46 -65 45 -64 166 -177 63 -59 164 -135 280 -213 124
-83 207 -146 265 -204 46 -46 108 -99 137 -119 29 -20 58 -47 65 -61 8 -13 17
-24 21 -24 4 0 18 24 32 53 13 28 40 73 60 100 37 48 38 58 3 32 -43 -32 -79
-11 -52 30 19 28 17 30 -18 14 -22 -10 -28 -8 -50 17 -31 36 -32 48 -5 86 28
38 18 45 -24 19 -35 -21 -77 -28 -77 -12 0 5 25 34 55 64 30 30 55 60 55 67 0
6 -24 -2 -56 -20 -30 -18 -58 -29 -61 -26 -4 3 9 22 27 41 36 38 34 62 -3 27
-32 -30 -141 -82 -173 -82 -41 0 -166 71 -161 91 4 13 -2 16 -26 15 -25 -1
-34 5 -45 27 -10 20 -20 27 -43 27 -35 0 -51 27 -26 42 31 17 17 26 -36 25
-29 0 -58 2 -65 7 -21 13 -13 34 18 45 48 16 35 24 -30 17 -59 -7 -74 0 -47
22 6 5 21 12 32 15 11 2 -4 5 -32 6 -57 1 -62 5 -36 33 15 17 14 18 -40 18
-61 0 -66 4 -40 32 15 17 14 18 -45 18 l-62 0 37 -52z"/>
<path d="M3885 2005 c-5 -2 -22 -6 -37 -9 -46 -10 -89 -57 -183 -201 -50 -77
-120 -174 -155 -215 -102 -121 -141 -229 -193 -535 -45 -260 -168 -542 -301
-690 -37 -41 -49 -68 -19 -44 9 8 61 67 115 131 105 126 134 151 213 191 78
39 126 94 194 224 34 65 110 186 169 268 59 83 143 204 187 270 89 133 201
258 276 305 33 22 72 36 121 44 79 13 74 21 -20 32 -75 8 -149 -9 -196 -44
-64 -50 -297 -335 -336 -412 -12 -25 -64 -108 -115 -185 -50 -77 -111 -171
-135 -210 -71 -113 -140 -188 -157 -171 -2 2 6 26 20 53 14 28 41 133 66 253
53 254 85 329 158 375 40 25 56 45 98 124 93 174 247 292 382 292 34 0 86 -6
115 -14 88 -25 141 -30 162 -14 18 13 18 15 2 40 -35 52 -369 163 -431 142z"/>
<path d="M866 1898 c-17 -56 -66 -258 -66 -270 0 -9 11 -30 25 -46 31 -37 31
-43 -1 -139 -14 -43 -31 -118 -39 -168 -7 -49 -19 -120 -25 -157 -14 -79 -4
-110 49 -145 51 -34 165 -67 209 -60 58 10 342 91 342 99 0 4 -35 6 -78 5 -72
-2 -82 0 -115 26 -45 34 -98 115 -121 185 -22 66 -23 184 -1 280 19 82 39 101
64 61 51 -77 154 -164 188 -157 14 3 7 11 -25 32 -52 33 -80 86 -63 123 6 13
15 23 21 23 5 0 10 5 10 10 0 6 -11 10 -24 10 -26 0 -60 36 -50 52 4 5 16 13
28 18 16 6 17 9 6 13 -8 2 -28 8 -45 13 -21 7 -32 18 -38 41 -7 22 -19 35 -38
42 -21 7 -29 17 -29 34 0 21 -5 25 -45 29 -25 3 -63 17 -85 32 -45 30 -49 31
-54 14z"/>
<path d="M2840 1668 c0 -29 3 -63 6 -75 6 -21 7 -21 30 -6 22 14 26 14 50 -2
21 -13 32 -15 49 -7 27 13 35 7 35 -25 0 -22 1 -23 23 -8 21 14 27 14 58 -1
19 -10 35 -18 37 -19 2 -2 -3 -28 -11 -59 -15 -57 -7 -74 19 -38 12 16 13 16
19 0 4 -10 2 -32 -4 -49 -13 -37 -8 -49 18 -42 16 4 22 -3 32 -39 6 -23 13
-63 15 -87 1 -24 8 -47 15 -51 6 -4 9 -12 5 -18 -3 -6 -2 -13 4 -17 5 -3 17 9
26 27 15 33 14 37 -37 188 -68 202 -73 213 -108 243 -24 20 -46 27 -108 32
-104 10 -141 27 -149 71 -10 52 -24 41 -24 -18z"/>
<path d="M2010 1573 c-42 -125 -118 -302 -149 -348 -17 -25 -31 -48 -31 -50 0
-2 30 -5 66 -7 l67 -3 -93 -115 c-51 -63 -106 -130 -123 -149 -37 -43 -22 -54
45 -34 28 8 52 12 56 9 9 -10 -49 -134 -86 -184 -19 -26 -53 -66 -76 -89 -22
-24 -36 -43 -30 -43 14 0 215 113 284 160 194 131 327 315 379 519 34 137 33
142 -58 213 -36 29 -98 83 -138 120 -40 37 -76 68 -81 68 -5 0 -20 -30 -32
-67z"/>
<path d="M2698 1273 c-91 -149 -96 -193 -39 -306 35 -70 59 -91 125 -109 87
-23 231 24 294 97 40 45 41 60 1 40 -17 -9 -37 -14 -45 -11 -13 5 -13 9 1 33
8 16 27 43 41 61 38 46 15 40 -42 -13 -53 -49 -72 -53 -109 -29 -32 21 -31 36
5 90 39 55 26 57 -28 3 -71 -72 -102 -24 -36 57 26 31 32 44 21 44 -9 0 -28
-16 -43 -35 -14 -19 -32 -35 -39 -35 -7 0 -25 26 -40 57 -21 44 -25 66 -21 95
4 21 5 38 4 38 -2 0 -24 -35 -50 -77z"/>
<path d="M2816 1254 c-18 -17 -20 -24 -8 -24 4 0 13 9 20 20 15 24 9 26 -12 4z"/>
<path d="M2391 1213 c-19 -55 -25 -227 -12 -311 6 -40 23 -106 37 -148 24 -70
25 -76 10 -99 -9 -14 -22 -25 -28 -25 -24 0 -98 -42 -98 -56 0 -18 -3 -19 76
20 188 92 391 174 502 201 165 41 362 119 344 137 -10 10 -48 -2 -227 -72 -80
-32 -129 -45 -178 -48 l-69 -4 -62 63 c-47 49 -70 84 -99 149 -23 53 -36 76
-36 60 0 -40 22 -90 77 -175 29 -44 51 -87 50 -95 -4 -20 -192 -24 -224 -4
-31 19 -48 152 -41 317 3 70 2 127 -2 127 -4 0 -13 -17 -20 -37z"/>
<path d="M1665 1119 c-90 -70 -191 -130 -249 -148 -33 -10 -146 -38 -250 -62
-107 -24 -198 -51 -211 -61 -12 -9 -25 -31 -28 -48 -8 -39 -28 -38 -62 3 -55
66 -177 189 -182 184 -7 -8 11 -31 112 -146 50 -56 100 -104 113 -106 12 -3
33 -7 47 -10 28 -6 36 -20 60 -110 24 -87 78 -137 171 -158 114 -27 134 -29
134 -18 0 11 -7 13 -90 31 -67 15 -87 25 -122 58 -27 24 -38 62 -19 62 5 0 25
-7 44 -15 84 -35 275 -12 390 47 61 31 36 32 -55 2 -114 -37 -213 -39 -282 -4
-27 14 -56 35 -64 47 -13 21 -12 23 9 32 13 4 87 14 164 21 204 19 199 16 326
206 113 169 122 185 113 209 -9 22 -24 18 -69 -16z"/>
<path d="M2680 683 c-117 -40 -301 -116 -324 -134 -79 -62 31 -139 197 -139
45 0 104 7 131 15 58 18 136 61 136 76 0 6 -6 9 -12 6 -114 -45 -115 -46 -139
-33 -38 18 -36 51 3 73 l33 18 -32 3 c-18 2 -33 7 -33 11 0 9 34 27 68 36 34
10 26 25 -9 18 -55 -11 -29 20 37 44 55 20 56 22 24 22 -19 0 -55 -7 -80 -16z"/>
<path d="M2284 484 c4 -10 16 -77 27 -149 30 -193 33 -202 79 -225 51 -26 115
-26 227 1 103 24 269 106 252 124 -3 3 -30 -8 -60 -24 -65 -36 -203 -65 -271
-59 -60 6 -88 29 -71 57 8 12 8 22 2 28 -6 6 -9 28 -7 49 l3 39 61 7 c60 6
142 33 132 43 -3 3 -25 1 -49 -4 -113 -26 -202 -2 -278 76 -30 31 -51 47 -47
37z"/>
<path d="M1365 460 c-4 -6 7 -10 24 -10 17 0 31 5 31 10 0 6 -11 10 -24 10
-14 0 -28 -4 -31 -10z"/>
</g>
</svg>
